<?xml version="1.0" encoding="utf-8"?>
<!-- Svg Vector Icons : http://www.sfont.cn -->
<!DOCTYPE svg PUBLIC "-//W3C//DTD SVG 1.1//EN" "http://www.w3.org/Graphics/SVG/1.1/DTD/svg11.dtd">
<svg version="1.1" xmlns="http://www.w3.org/2000/svg" xmlns:xlink="http://www.w3.org/1999/xlink" x="0px" y="0px" viewBox="0 0 1000 1000" enable-background="new 0 0 1000 1000" xml:space="preserve">
<metadata> Svg Vector Icons : http://www.sfont.cn </metadata>
<g><path d="M10,10h980v980H10V10z"/><path d="M713.3,500c0,117.8-95.5,213.3-213.3,213.3c-117.8,0-213.3-95.5-213.3-213.3c0-117.8,95.5-213.3,213.3-213.3C617.8,286.7,713.3,382.2,713.3,500z"/><path d="M500,742.1c-133.5,0-242.1-108.6-242.1-242.1c0-133.5,108.6-242.1,242.1-242.1c133.5,0,242.1,108.6,242.1,242.1C742.1,633.5,633.5,742.1,500,742.1z M500,315.5c-101.7,0-184.5,82.7-184.5,184.5c0,101.7,82.8,184.5,184.5,184.5c101.7,0,184.5-82.8,184.5-184.5C684.5,398.3,601.7,315.5,500,315.5z"/><path d="M500,190.1c-15.9,0-28.8-12.9-28.8-28.8v-111c0-15.9,12.9-28.8,28.8-28.8c15.9,0,28.8,12.9,28.8,28.8v111C528.8,177.2,515.9,190.1,500,190.1z"/><path d="M500,978.5c-15.9,0-28.8-12.9-28.8-28.8v-111c0-15.9,12.9-28.8,28.8-28.8c15.9,0,28.8,12.9,28.8,28.8v111C528.8,965.6,515.9,978.5,500,978.5z"/><path d="M161.3,528.8h-111c-15.9,0-28.8-12.9-28.8-28.8c0-15.9,12.9-28.8,28.8-28.8h111c15.9,0,28.8,12.9,28.8,28.8C190.1,515.9,177.2,528.8,161.3,528.8z"/><path d="M949.7,528.8h-111c-15.9,0-28.8-12.9-28.8-28.8c0-15.9,12.9-28.8,28.8-28.8h111c15.9,0,28.8,12.9,28.8,28.8C978.5,515.9,965.6,528.8,949.7,528.8z"/><path d="M260.5,289.4c-7.4,0-14.8-2.8-20.4-8.4l-78.5-78.5c-11.3-11.3-11.3-29.5,0-40.8c11.3-11.3,29.5-11.3,40.8,0l78.5,78.5c11.3,11.3,11.3,29.5,0,40.8C275.3,286.5,267.9,289.4,260.5,289.4z"/><path d="M818,846.8c-7.4,0-14.8-2.8-20.4-8.4l-78.5-78.5c-11.3-11.2-11.3-29.5,0-40.8c11.3-11.3,29.5-11.3,40.8,0l78.5,78.5c11.3,11.2,11.3,29.5,0,40.8C832.7,843.9,825.3,846.8,818,846.8z"/><path d="M182,846.8c-7.4,0-14.8-2.8-20.4-8.4c-11.3-11.3-11.3-29.5,0-40.8l78.5-78.5c11.3-11.3,29.5-11.3,40.8,0c11.3,11.2,11.3,29.5,0,40.8l-78.5,78.5C196.8,844,189.4,846.8,182,846.8z"/><path d="M739.5,289.4c-7.4,0-14.8-2.8-20.4-8.4c-11.3-11.2-11.3-29.5,0-40.8l78.5-78.5c11.3-11.3,29.5-11.3,40.8,0c11.3,11.2,11.3,29.5,0,40.8l-78.5,78.5C754.2,286.5,746.9,289.4,739.5,289.4z"/></g>
</svg>