<?xml version="1.0" encoding="utf-8"?>
<!-- Svg Vector Icons : http://www.sfont.cn -->
<!DOCTYPE svg PUBLIC "-//W3C//DTD SVG 1.1//EN" "http://www.w3.org/Graphics/SVG/1.1/DTD/svg11.dtd">
<svg version="1.1" xmlns="http://www.w3.org/2000/svg" xmlns:xlink="http://www.w3.org/1999/xlink" x="0px" y="0px" viewBox="0 0 1000 1000" enable-background="new 0 0 1000 1000" xml:space="preserve">
<metadata> Svg Vector Icons : http://www.sfont.cn </metadata>
<g><path fill="#fff" d="M500,378.3c61.6,0,111.8-50.2,111.8-111.8S561.6,154.7,500,154.7c-61.6,0-111.8,50.2-111.8,111.8S438.4,378.3,500,378.3z M500,207.8c32.3,0,58.7,26.3,58.7,58.7s-26.3,58.7-58.7,58.7c-32.3,0-58.7-26.3-58.7-58.7S467.7,207.8,500,207.8z M611.8,734.5c0-61.6-50.2-111.8-111.8-111.8c-61.6,0-111.8,50.2-111.8,111.8c0,61.6,50.2,111.8,111.8,111.8C561.6,846.3,611.8,796.2,611.8,734.5z M441.3,734.5c0-32.3,26.3-58.7,58.7-58.7c32.3,0,58.7,26.3,58.7,58.7s-26.3,58.7-58.7,58.7C467.7,793.2,441.3,766.9,441.3,734.5z M733.5,610c61.6,0,111.8-50.2,111.8-111.8c0-61.6-50.2-111.8-111.8-111.8s-111.8,50.2-111.8,111.8C621.7,559.8,671.9,610,733.5,610z M733.5,439.5c32.3,0,58.7,26.3,58.7,58.7c0,32.3-26.3,58.7-58.7,58.7s-58.7-26.3-58.7-58.7C674.9,465.8,701.2,439.5,733.5,439.5L733.5,439.5z M265.5,391c-61.6,0-111.8,50.2-111.8,111.8c0,61.6,50.2,111.8,111.8,111.8c61.6,0,111.8-50.2,111.8-111.8C377.3,441.2,327.1,391,265.5,391L265.5,391z M265.5,561.5c-32.3,0-58.7-26.3-58.7-58.7c0-32.3,26.3-58.7,58.7-58.7c32.3,0,58.7,26.3,58.7,58.7C324.1,535.2,297.8,561.5,265.5,561.5z M954.2,936.9h-232c45.8-23.3,87.5-53.6,124.3-90.4c45-45,80.3-97.4,105-155.7C977,630.3,990,566.1,990,500c0-66.1-13-130.3-38.5-190.7c-24.7-58.4-60-110.8-105-155.7c-45-45-97.4-80.3-155.7-105C630.3,23,566.1,10,500,10S369.7,23,309.3,48.5c-58.4,24.7-110.8,60-155.7,105c-45,45-80.3,97.4-105,155.7C23,369.7,10,433.9,10,500c0,66.1,13,130.3,38.5,190.7c24.7,58.4,60,110.8,105,155.7c45,45,97.4,80.3,155.7,105C369.7,977,433.9,990,500,990c2.5,0,5,0,7.5-0.1c0.6,0,1.2,0.1,1.7,0.1h444.9c14.7,0,26.6-11.9,26.6-26.6C980.7,948.8,968.8,936.9,954.2,936.9L954.2,936.9z M191.1,808.9C151,768.8,119.5,722.1,97.5,670c-22.8-53.8-34.3-111-34.3-170s11.5-116.2,34.3-170c22-52,53.5-98.7,93.6-138.9c40.1-40.1,86.8-71.6,138.9-93.6c53.8-22.8,111-34.3,170-34.3s116.2,11.5,170,34.3c52,22,98.7,53.5,138.9,93.6c40.1,40.1,71.6,86.8,93.6,138.9c22.8,53.8,34.3,111,34.3,170s-11.5,116.2-34.3,170c-22,52-53.5,98.7-93.6,138.9c-40.1,40.1-86.8,71.6-138.9,93.6c-53.8,22.8-111,34.3-170,34.3c-59,0-116.2-11.5-170-34.3C278,880.5,231.2,849,191.1,808.9L191.1,808.9z"/></g>
</svg>