<?xml version="1.0" encoding="utf-8"?>
<!-- Svg Vector Icons : http://www.sfont.cn -->
<!DOCTYPE svg PUBLIC "-//W3C//DTD SVG 1.1//EN" "http://www.w3.org/Graphics/SVG/1.1/DTD/svg11.dtd">
<svg version="1.1" xmlns="http://www.w3.org/2000/svg" xmlns:xlink="http://www.w3.org/1999/xlink" x="0px" y="0px" viewBox="0 0 1000 1000" enable-background="new 0 0 1000 1000" xml:space="preserve">
<metadata> Svg Vector Icons : http://www.sfont.cn </metadata>
<g><path fill="#fff" d="M601,241.9c0-60.8,0-114.1,0-174.7c0-24.5,14.8-39.7,39.7-39.7c24.2,0,31.3,0,39.7,0c21.7,0,36.5,13.2,36.5,35.1c0,13,3.6,23.4,3.1,36.4c-0.2,5.8,2.6,7.9,7.9,7.9c78.5-0.2,151.8,0,230.3,0c22.9,0,31.8,16.8,31.8,39.7c0,16.8,0,31,0,47.6c0,21.1-10.9,31.8-31.8,31.8c-78.5,0-151.8,0.3-230.3,0c-6.9,0-16,9.2-15.8,15.8c0.3,66,4.9,125.5,4.6,191.5c0,6.3,4.4,7.1,11.2,7.1c71.3-0.3,143.1,0,214.4,0c22.7,0,31.8,9.1,31.8,31.8c0,153.6-0.3,315,0,468.6c0,20.6-10.7,31.8-31.8,31.8c-121.2-0.5-244.2,0-365.3,0c-22.9,0-39.7-16.8-39.7-39.7c0-153.9,0-306.7,0-460.7c0-21.6,15-30.8,36.4-30.8c6.1,0,12.3-0.3,18.4,0.2c4.8,0.3,8.6-4.1,8.6-9.1c-0.2-34.2,0-69,0-103.2C601,299.9,601,271.2,601,241.9z M854.7,705.6c0-41.5,0.5-80.7,0.5-122.2c0-15-8.7-23.9-23.9-23.9c-51,0-99.8,0-151,0c-13.5,0-23.9,10.2-23.9,23.9c0,83.6,0,162.7,0,246.1c0,14.8,9.7,23.2,24.4,23.2c50.4,0,100.8,0,151,0c16.1,0,22.7-6.8,22.7-23C854.7,788.4,854.7,747,854.7,705.6z"/><path fill="#fff" d="M13.2,83c0-6.9-3-17.1,0.5-23.4C19.8,49,29,43.4,41.5,43.4c28.6,0,57.3,0,85.9,0c108.3,0,216.7,0,325.2,0c24.2,0,36.1,11.7,36.1,35.6c0,202,0.2,404,0.2,606c0,23.2-11.9,34.9-35.2,34.9c-16,0-32.1,0-48.1,0c-23.2,0-35.2-11.9-35.2-34.9c0-134.3,0-268.9,0-403.2c0-32.8,0-65.5,0-98.5c0-14.7-6.6-21.4-21.1-21.4c-66.8,0-133.9,0-200.7,0c-14.5,0-24,10-24,24.5c0,167.3,0,325.2,0,492.4c0,23.5-8.4,40.8-31.9,40.8c-16,0-31.4-2.3-47.4-1.2c-23.4,1.6-31.8-13.7-31.8-31.8C13.2,686.6,13.3,183.5,13.2,83z"/><path fill="#fff" d="M249.3,846.8c-5.9,6.8-11.7,13.7-17.6,20.1c-39.3,42.3-87.4,69.8-143.6,83.8c-16.8,4.1-33.8,6.6-51,7.7c-12,0.8-26.2-10.9-26.3-23.2c-0.5-23.9-1.3-47.9,0-71.8c1-16.8,9.1-26.2,29.6-31.4c65.4-16.8,106.2-50.4,131.7-113.6c7.9-23.9,16-48.4,15.8-71.5c-0.2-139.8,0-281,0-421c0-15.3,6.3-17,21.7-17c26.7,0,53.3,0,80,0c17.1,0,19.9,2.6,19.9,19.4c0,140.3,0.3,280.7-0.2,421c-0.2,38.7,11.4,73.3,32.9,104.7c27.5,40,65.2,65.9,112.3,78c3.8,1,7.6,2,11.4,3.3c13.5,4.4,22.7,17,22.9,31.3c0.2,20.9,0.2,42,0,62.9c-0.2,18.8-13.2,31-31.9,29.3c-82.7-7.1-150.3-42.8-203-106.7C252.4,850.6,251.1,848.8,249.3,846.8z"/></g>
</svg>