<?xml version="1.0" encoding="utf-8"?>
<!-- Svg Vector Icons : http://www.sfont.cn -->
<!DOCTYPE svg PUBLIC "-//W3C//DTD SVG 1.1//EN" "http://www.w3.org/Graphics/SVG/1.1/DTD/svg11.dtd">
<svg version="1.1" xmlns="http://www.w3.org/2000/svg" xmlns:xlink="http://www.w3.org/1999/xlink" x="0px" y="0px" viewBox="0 0 1000 1000" enable-background="new 0 0 1000 1000" xml:space="preserve">
<metadata> Svg Vector Icons : http://www.sfont.cn </metadata>
<g><path d="M375.8,219.1c6.3,0,11.7-2.3,16.2-6.8c4.5-4.5,6.8-9.9,6.8-16.2c0-6.3-2.3-11.7-6.8-16.2c-4.5-4.5-9.9-6.8-16.2-6.8c-6.3,0-11.6,2.3-15.9,6.8c-4.3,4.5-6.5,9.9-6.5,16.2c0,6.3,2.2,11.7,6.5,16.2C364.2,216.8,369.5,219.1,375.8,219.1z M624.3,219.1c6.3,0,11.6-2.3,15.9-6.8c4.3-4.5,6.5-9.9,6.5-16.2c0-6.3-2.2-11.7-6.5-16.2c-4.3-4.5-9.6-6.8-15.9-6.8c-6.3,0-11.7,2.3-16.2,6.8c-4.5,4.5-6.8,9.9-6.8,16.2c0,6.3,2.3,11.7,6.8,16.2C612.6,216.8,618,219.1,624.3,219.1z M146.1,327.4c16.5,0,30.6,5.9,42.4,17.7c11.8,11.8,17.7,25.9,17.7,42.4v253.2c0,16.9-5.8,31.2-17.4,43c-11.6,11.8-25.8,17.7-42.7,17.7c-16.9,0-31.2-5.9-43-17.7c-11.8-11.8-17.7-26.1-17.7-43V387.5c0-16.5,5.9-30.6,17.7-42.4C114.8,333.3,129.2,327.4,146.1,327.4z M770.3,338.6v392.2c0,18.1-6.3,33.4-18.8,45.9c-12.6,12.6-27.7,18.8-45.3,18.8H662v133.7c0,16.9-5.9,31.2-17.7,43c-11.8,11.8-26.1,17.7-43,17.7c-16.9,0-31.2-5.9-43-17.7c-11.8-11.8-17.7-26.1-17.7-43V795.6h-81.3v133.7c0,16.9-5.9,31.2-17.7,43c-11.8,11.8-26.1,17.7-43,17.7c-16.5,0-30.6-5.9-42.4-17.7c-11.8-11.8-17.7-26.1-17.7-43L338,795.6h-43.6c-18.1,0-33.4-6.3-45.9-18.8c-12.6-12.6-18.8-27.9-18.8-45.9V338.6H770.3L770.3,338.6z M633.7,100.1c42,21.6,75.6,51.7,100.7,90.4c25.1,38.7,37.7,81,37.7,126.9H227.4c0-45.9,12.6-88.2,37.7-126.9c25.1-38.7,58.9-68.8,101.3-90.4L324.6,23c-2.7-5.1-1.8-9,2.9-11.8c5.1-2.4,9-1.2,11.8,3.5l42.4,77.8C419,76,458.5,67.8,500.1,67.8c41.6,0,81.1,8.2,118.4,24.7l42.4-77.8c2.7-4.7,6.7-5.9,11.8-3.5c4.7,2.7,5.7,6.7,2.9,11.8L633.7,100.1z M914.6,387.5v253.2c0,16.9-5.9,31.2-17.7,43c-11.8,11.8-26.1,17.7-43,17.7c-16.5,0-30.6-5.9-42.4-17.7c-11.8-11.8-17.7-26.1-17.7-43V387.5c0-16.9,5.9-31.1,17.7-42.7c11.8-11.6,25.9-17.4,42.4-17.4c16.9,0,31.2,5.8,43,17.4C908.7,356.4,914.6,370.6,914.6,387.5L914.6,387.5z"/></g>
</svg>