<?xml version="1.0" encoding="utf-8"?>
<!-- Svg Vector Icons : http://www.sfont.cn -->
<!DOCTYPE svg PUBLIC "-//W3C//DTD SVG 1.1//EN" "http://www.w3.org/Graphics/SVG/1.1/DTD/svg11.dtd">
<svg version="1.1" xmlns="http://www.w3.org/2000/svg" xmlns:xlink="http://www.w3.org/1999/xlink" x="0px" y="0px" viewBox="0 0 1000 1000" enable-background="new 0 0 1000 1000" xml:space="preserve">
<metadata> Svg Vector Icons : http://www.sfont.cn </metadata>
<g><path fill="#fff" d="M370.1,939.4c0.9,0,1.9,0,2.9-0.1c53.8-1.9,74.1-33.3,139.1-33.3c0.1,0,0.2,0,0.3,0c31.9,0,52.5,8.1,72,16.1c19.5,8.1,37.9,16.2,65.3,16.2c0.8,0,1.6,0,2.5,0c57.8-1.2,94.6-50.4,130.1-99.9c40.8-57.1,57.7-112.6,58.6-115.5c-1.2-0.6-112.7-41.4-114-164.4c-0.9-102.8,87.8-152.3,91.8-154.7c-50-69.7-127.6-79.3-155.3-80.4c-4-0.4-8-0.6-12-0.6c-60.5,0-109.8,42.5-141.1,42.5c-33.2,0-93.1-39.9-147.5-39.9c-0.7,0-1.4,0-2.1,0c-72,1-138.4,40.1-175.6,101.8c-74.7,124.5-19,308.6,54,409.3c35,48.5,76.6,102.8,131.1,102.8C370.1,939.4,370.1,939.4,370.1,939.4 M503.4,231.3c44.6,0,77.3-19.9,110-52.2c23.9-23.7,36.8-69,36.8-116.6c-43.8,1.7-79.9,21.1-111.2,55.3C510.6,148.3,503.4,184.7,503.4,231.3 M370.1,990H370c-82.7,0-136.5-74.5-172.1-123.8c-73.7-101.8-149.6-309.6-56.3-465c46.2-76.7,129.8-125.1,218.3-126.3l2.8,0c40.1,0,78.6,15,109.6,27.1c12.7,4.9,31.8,12.4,38.2,12.8c3.2-0.7,16.9-6.9,26.9-11.5c28.6-13.1,67.7-31,113.9-31c5.1,0,10.2,0.2,15.3,0.7c38.5,1.7,131.2,15.3,193.1,101.4l31.8,44.4L844.8,447c-12.3,7.2-68.1,43.6-67.5,111.1c0.8,81.1,68.3,112.3,81.8,117.7l2.1,0.9l2.5,1.2l37.8,19.4L889,737.9c-3.5,11.2-22.8,69.8-65.7,129.9c-36.1,50.4-85.6,119.4-170.2,121.1l-3.5,0c-36.4,0-61.9-10.6-82.5-19.1l-2.2-0.9c-18.5-7.7-31.2-12.3-52.6-12.3c-25.1,0-40.1,6.1-59,13.9c-19.8,8.1-44.5,18.2-78.5,19.4C373.3,989.9,371.7,990,370.1,990L370.1,990L370.1,990z M503.4,281.9h-50.6v-50.6l0-7c-0.1-47.2-0.2-91.7,40.2-135.2C535.1,43.1,593.2,14.1,648.2,12l52.5-2v52.6c0,61.3-21.8,122.6-55.6,156C613.4,249.9,571.8,281.9,503.4,281.9L503.4,281.9L503.4,281.9z"/></g>
</svg>