<?xml version="1.0" encoding="utf-8"?>
<!-- Svg Vector Icons : http://www.sfont.cn -->
<!DOCTYPE svg PUBLIC "-//W3C//DTD SVG 1.1//EN" "http://www.w3.org/Graphics/SVG/1.1/DTD/svg11.dtd">
<svg version="1.1" xmlns="http://www.w3.org/2000/svg" xmlns:xlink="http://www.w3.org/1999/xlink" x="0px" y="0px" viewBox="0 0 1000 1000" enable-background="new 0 0 1000 1000" xml:space="preserve">
<metadata> Svg Vector Icons : http://www.sfont.cn </metadata>
<g><path fill="#fff" d="M866.8,800.8c0,16.1,6.2,32.1,17.9,43.7c11.6,11.6,27.7,17.8,43.7,17.8c16.1,0,32.1-6.2,43.7-17.8c11.6-11.6,17.9-27.7,17.9-43.7c0-16.1-6.2-32.1-17.9-43.7c-11.6-11.6-27.7-17.9-43.7-17.9c-16.1,0-32.1,6.2-43.7,17.9C873.1,767.8,866.8,783.8,866.8,800.8L866.8,800.8z"/><path d="M888.3,685.6c22.3,22.3,58,22.3,80.3,0c11.6-11.6,17-27.7,16.1-42.8l0,0c0.9-63.4-22.3-127.6-71.4-175.8c-49.1-49.1-115.1-73.2-179.4-70.5c1.8-12.5,2.7-25,2.7-37.5c0-133.9-108.9-242.8-242.8-242.8S251,225.1,251,359c0,13.4,0.9,27.7,3.6,40.2c-0.9,0-2.7,0-3.6,0c-117.8,0-215.1,83-237.4,193.7l0,0c0,1.8-0.9,3.6-0.9,5.4v0.9c0,1.8-0.9,3.6-0.9,5.4v0.9c-0.9,1.8-0.9,3.6-0.9,5.4c0,0.9,0,0.9,0,1.8c0,1.8,0,2.7-0.9,4.5c0,0.9,0,1.8,0,1.8c0,0.9,0,2.7,0,3.6s0,1.8,0,2.7s0,2.7,0,3.6c0,0.9,0,2.7,0,3.6s0,1.8,0,2.7c0,1.8,0,4.5,0,6.2c0,37.5,8.9,73.2,24.1,105.3c39.3,81.2,122.3,137.5,218.7,137.5h0.9c1.8,0,3.6,0,4.5,0c0.9,0,1.8,0,2.7,0c0.9,0,2.7,0,3.6,0c0.9,0,1.8,0,2.7,0c0.9,0,1.8,0,3.6,0c0.9,0,1.8,0,2.7,0s1.8,0,2.7,0c0.9,0,1.8,0,2.7,0c0.9,0,1.8,0,2.7,0c0.9,0,1.8,0,2.7,0c0.9,0,1.8,0,2.7,0c0.9,0,1.8,0,2.7,0c0.9,0,1.8,0,3.6-0.9c1.8,0,3.6-0.9,5.4-0.9c0.9,0,1.8,0,2.7-0.9c0.9,0,1.8,0,2.7-0.9c0.9,0,1.8,0,2.7-0.9c0.9,0,1.8-0.9,3.6-0.9c0.9,0,1.8,0,1.8-0.9c0.9,0,1.8-0.9,3.6-0.9c0.9,0,1.8,0,1.8-0.9c0.9,0,2.7-0.9,3.6-0.9c0.9,0,0.9,0,1.8-0.9c0.9,0,2.7-0.9,3.6-0.9h0.9c6.2-1.8,12.5-4.5,17.9-6.2c0,0,0,0,0.9,0c1.8-0.9,2.7-0.9,4.5-1.8h0.9c1.8-0.9,2.7-0.9,4.5-1.8c0,0,0,0,0.9,0c42.8-19.6,78.5-51.8,102.6-91l208-235.6c50.9-37.5,122.3-33.9,168.7,12.5c25.9,25.9,39.3,60.7,37.5,95.5l0,0C870.4,658,875.8,674,888.3,685.6L888.3,685.6z M354.5,719.6l-10.7,11.6c-0.9,0.9-0.9,0.9-1.8,1.8l0,0c-9.8,9.8-22.3,18.7-34.8,25l0,0c-1.8,0.9-3.6,1.8-5.4,2.7c0,0,0,0-0.9,0c-1.8,0.9-3.6,1.8-5.4,1.8h-0.9c-1.8,0.9-3.6,0.9-5.4,1.8h-0.9c-1.8,0.9-3.6,0.9-5.4,1.8c-0.9,0-0.9,0-1.8,0c-1.8,0-2.7,0.9-4.5,0.9c-0.9,0-1.8,0-1.8,0c-1.8,0-2.7,0.9-4.5,0.9c-0.9,0-1.8,0-2.7,0c-0.9,0-2.7,0-3.6,0.9c-0.9,0-2.7,0-3.6,0c-0.9,0-1.8,0-2.7,0c-1.8,0-4.5,0-6.2,0l0,0c-71.4,0-129.4-58-129.4-129.4c0-1.8,0-4.5,0-6.2c0-0.9,0-0.9,0-1.8c0-1.8,0-2.7,0-4.5c0-0.9,0-1.8,0-2.7c0-0.9,0-2.7,0.9-3.6c0-0.9,0-1.8,0.9-3.6c0-0.9,0-1.8,0.9-2.7c0-0.9,0.9-2.7,0.9-3.6s0-1.8,0.9-2.7c0-1.8,0.9-2.7,0.9-4.5c0-0.9,0-0.9,0.9-1.8c0.9-1.8,0.9-2.7,1.8-4.5c0-0.9,0-0.9,0.9-1.8c0.9-1.8,0.9-2.7,1.8-4.5v-0.9c0.9-1.8,1.8-3.6,1.8-4.5c0,0,0,0,0-0.9c0.9-1.8,1.8-3.6,2.7-5.4l0,0c5.4-10.7,12.5-20.5,20.5-29.5c0.9-0.9,1.8-1.8,2.7-2.7c23.2-23.2,55.3-37.5,91-37.5c71.4,0,129.4,58,129.4,129.4C380.4,670.5,370.6,698.1,354.5,719.6L354.5,719.6z M493.8,487.5c-71.4,0-129.4-58-129.4-129.4c0-71.4,58-129.4,129.4-129.4c71.4,0,129.4,58,129.4,129.4C623.2,429.5,565.2,487.5,493.8,487.5L493.8,487.5z"/></g>
</svg>