<?xml version="1.0" encoding="utf-8"?>
<!-- Svg Vector Icons : http://www.sfont.cn -->
<!DOCTYPE svg PUBLIC "-//W3C//DTD SVG 1.1//EN" "http://www.w3.org/Graphics/SVG/1.1/DTD/svg11.dtd">
<svg version="1.1" xmlns="http://www.w3.org/2000/svg" xmlns:xlink="http://www.w3.org/1999/xlink" x="0px" y="0px" viewBox="0 0 1000 1000" enable-background="new 0 0 1000 1000" xml:space="preserve">
<metadata> Svg Vector Icons : http://www.sfont.cn </metadata>
<g><g fill="#fff" transform="translate(0.000000,512.000000) scale(0.100000,-0.100000)"><path d="M4530.1,5007.9C3375.4,4889,2341.7,4400,1530.4,3588.6C751.6,2809.9,287.5,1860.5,124.4,723.1c-32.6-226.3-32.6-982,0-1208.3c163-1137.4,629.1-2086.8,1405.9-2865.5c776.8-776.8,1730-1244.8,2865.5-1405.9c226.3-32.6,982-32.6,1208.3,0c939.8,134.3,1779.9,491,2474.2,1053c987.8,797.9,1611.1,1916.1,1797.2,3218.4c32.6,226.3,32.6,982,0,1208.3c-161.1,1135.5-629.1,2088.7-1405.9,2865.5c-759.5,759.5-1687.8,1223.7-2779.2,1392.5C5448.8,5017.5,4775.6,5034.8,4530.1,5007.9z M4578,3034.3V2574h268.5h268.5v460.3v460.3H5422h306.9v-458.4v-458.4l130.4-13.4c404.7-36.4,751.9-124.7,962.8-245.5c151.5-86.3,326.1-268.5,398.9-416.2c174.6-354.8,153.4-842-49.9-1147c-117-178.4-372.1-347.2-656-437.3c-57.5-17.3-113.2-38.4-120.8-46c-7.7-7.7,34.5-23,95.9-36.4c280-63.3,563.9-214.8,746.1-400.8c197.6-203.3,295.4-481.4,295.4-847.8c0-627.2-280-1007-872.7-1179.6c-189.9-55.6-615.7-124.7-771-124.7c-170.7,0-159.2,34.5-159.2-481.4v-458.4H5422h-306.9v460.3v460.3h-268.5H4578v-460.3v-460.3h-306.9h-306.9v460.3v460.3h-594.6h-594.6v276.2v274.3l274.3,9.6c326.1,11.5,400.9,34.5,450.7,143.8c30.7,67.1,32.6,207.1,32.6,1751.1c0,1639.9,0,1680.2-38.4,1755c-57.5,115.1-109.3,132.3-435.4,140l-283.9,7.7v276.2V2574h594.6h594.6v460.3v460.3h306.9H4578V3034.3z"/><path d="M4578,1250.6V477.6l475.7,11.5c657.9,13.4,897.6,69,1074.1,249.3c120.8,122.8,163,237.8,172.6,468c11.5,251.3-34.5,416.2-151.5,550.5c-94,107.4-180.3,153.4-377.8,207.1c-126.6,32.6-224.4,40.3-669.4,47.9l-523.6,9.6V1250.6z"/><path d="M4578-926.3v-853.5h506.4c717.3,0,949.4,46,1152.7,232.1c126.6,117,195.6,264.7,222.5,477.6c47.9,395.1-86.3,719.2-354.8,849.7c-228.2,111.2-491,147.7-1099,147.7H4578V-926.3z"/></g></g>
</svg>