<?xml version="1.0" encoding="utf-8"?>
<!-- Svg Vector Icons : http://www.sfont.cn -->
<!DOCTYPE svg PUBLIC "-//W3C//DTD SVG 1.1//EN" "http://www.w3.org/Graphics/SVG/1.1/DTD/svg11.dtd">
<svg version="1.1" xmlns="http://www.w3.org/2000/svg" xmlns:xlink="http://www.w3.org/1999/xlink" x="0px" y="0px" viewBox="0 0 1000 1000" enable-background="new 0 0 1000 1000" xml:space="preserve">
<metadata> Svg Vector Icons : http://www.sfont.cn </metadata>
<g><path fill="#fff" d="M988.7,329.8l-11.4,72.8c0,0-16.2-134.8-36.1-185.2c-30.5-77.2-44-76.6-44.1-76.5c20.4,51.9,16.7,79.7,16.7,79.7s-36.2-98.6-131.8-129.9C676.1,56,618.8,65.5,612.2,67.3c-1,0-2,0-2.9,0c0.8,0.1,1.5,0.2,2.3,0.2c0,0-0.1,0-0.1,0.1c0.4,0.5,117,20.4,137.7,48.8c0,0-49.5,0-98.8,14.2c-2.2,0.6,181.4,22.9,218.9,206.4c0,0-20.1-42-45-49.1c16.4,49.8,12.2,144.3-3.4,191.3c-2,6-4.1-26.1-34.8-40c9.8,70.5-0.6,182.3-49.5,213.1c-3.8,2.4,30.7-110.3,6.9-66.8c-136.6,209.4-298,96.6-370.6,47c37.2,8.1,107.8-1.3,139.1-24.5c0,0,0.1-0.1,0.1-0.1c33.9-23.2,54.1-40.1,72.1-36.1c18,4,30.1-14.1,16-30.2c-14.1-16.1-48.1-38.3-94.3-26.2c-32.6,8.5-72.9,44.5-134.4,8.1c-47.3-28-51.7-51.2-52.1-67.3c1.2-5.7,2.6-11.1,4.4-15.9c5.5-15.2,21.9-19.8,31.1-23.4c15.6,2.7,29,7.5,43,14.7c0.2-4.7,0.2-10.9,0-17.9c1.3-2.7,0.5-10.8-1.7-20.6c-1.3-9.9-3.3-20.1-6.5-29.4h0c0.1,0,0.1,0,0.2-0.1c0.1,0,0.2-0.1,0.2-0.2c0,0,0,0,0-0.1c0.1-0.1,0.2-0.2,0.2-0.5c1-4.4,11.5-13,24.6-22.1c11.7-8.2,25.5-16.9,36.4-23.7c9.6-6,17-10.4,18.5-11.6c0.6-0.5,1.3-1,2.1-1.6c0.2-0.1,0.3-0.2,0.4-0.3c0.1-0.1,0.2-0.2,0.3-0.2c5.2-4.1,12.9-11.9,14.5-28.3c0,0,0-0.1,0-0.1c0.1-0.5,0.1-1,0.1-1.5c0-0.3,0.1-0.7,0.1-1c0-0.3,0-0.6,0-0.8c0-0.6,0.1-1.3,0.1-2c0,0,0-0.1,0-0.1c0-1.6,0-3.2-0.1-5c-0.1-1-0.1-1.8-0.3-2.6c0,0,0-0.1,0-0.1c0-0.1,0-0.2-0.1-0.2c0-0.2-0.1-0.3-0.1-0.4c0,0,0,0,0,0c-0.1-0.2-0.1-0.3-0.2-0.4c0,0,0,0,0,0c-1.7-3.9-8-5.4-33.9-5.8c0,0-0.1,0-0.1,0l0,0c-10.6-0.2-24.4-0.2-42.6-0.1c-31.8,0.1-49.4-31.1-55-43.2c7.7-42.5,29.9-72.9,66.5-93.4c0.7-0.4,0.6-0.7-0.3-0.9c7.1-4.3-86.4-0.1-129.4,54.6c-38.2-9.5-71.4-8.9-100.1-2.1c-5.5-0.2-12.4-0.8-20.5-2.5c-19.1-17.3-46.4-49.2-47.8-87.3c0,0-0.1,0.1-0.2,0.2c0-0.4-0.1-0.7-0.1-1.1c0,0-58.1,44.7-49.4,166.4c0,2-0.1,3.8-0.1,5.6C57.9,272.1,50.1,290,49.6,294C35.6,322.3,21.5,365,10,429.9c0,0,8.1-25.5,24.2-54.4c-11.9,36.4-21.2,93-15.7,177.9c0,0,1.4-18.8,6.6-45.9C29,560,46.6,625,90.9,701.4c85.1,146.7,216,220.8,360.6,232.2c25.7,2.1,51.7,2.2,77.9,0.2c2.4-0.2,4.8-0.3,7.2-0.6c29.6-2.1,59.5-6.6,89.2-13.8c406.9-98.4,362.7-589.7,362.7-589.7L988.7,329.8z"/></g>
</svg>