<?xml version="1.0" encoding="utf-8"?>
<!-- Svg Vector Icons : http://www.sfont.cn -->
<!DOCTYPE svg PUBLIC "-//W3C//DTD SVG 1.1//EN" "http://www.w3.org/Graphics/SVG/1.1/DTD/svg11.dtd">
<svg version="1.1" xmlns="http://www.w3.org/2000/svg" xmlns:xlink="http://www.w3.org/1999/xlink" x="0px" y="0px" viewBox="0 0 1000 1000" enable-background="new 0 0 1000 1000" xml:space="preserve">
<metadata> Svg Vector Icons : http://www.sfont.cn </metadata>
<g><g fill="#fff" transform="translate(0.000000,573.000000) scale(0.100000,-0.100000)"><path d="M864.7,5094.6c-206.7-35.2-416.4-151.6-546.5-301.6c-84.2-98-165.3-261.8-192.9-395c-33.7-157.7-33.7-2977.6,0-3492c39.8-616.9,147-1074.7,376.6-1610.5c555.7-1295.1,1778.9-2362.2,3153.6-2749.5c1057.9-298.5,2129.5-244.9,3144.4,154.6c1622.7,639.9,2813.8,2124.9,3044.9,3793.5c45.9,336.8,55.1,698.1,55.1,2268.8c0,1745.2,3.1,1674.8-101,1873.8c-102.6,196-303.1,356.7-541.9,437.8c-81.1,26-241.9,27.6-4202.3,29.1C2790.5,5105.4,904.5,5100.8,864.7,5094.6z M2939,2553.4c45.9-16.8,111.7-52,143.9-75c33.7-24.5,476.1-442.4,984.4-929.3c508.3-488.3,932.3-886.4,941.5-886.4c10.7,0,442.4,405.7,958.3,901.7c572.6,548.1,970.6,917,1016.5,944.6c324.6,186.8,760.8,52.1,927.7-284.7c125.5-255.7,81.2-555.7-111.7-760.9C7615.9,1265.9,5409.9-829.9,5351.7-863.6c-113.3-67.4-231.2-93.4-382.7-85.7c-116.3,6.1-148.5,13.8-248,62.8c-105.6,52.1-199,137.8-1313.5,1206.3c-659.8,632.3-1223.2,1181.8-1249.2,1220.1c-102.6,143.9-147,344.5-113.3,511.3c53.6,258.7,272.5,479.2,525.1,532.7C2665,2603.9,2842.6,2590.1,2939,2553.4z"/></g></g>
</svg>