<?xml version="1.0" encoding="utf-8"?>
<!-- Svg Vector Icons : http://www.sfont.cn -->
<!DOCTYPE svg PUBLIC "-//W3C//DTD SVG 1.1//EN" "http://www.w3.org/Graphics/SVG/1.1/DTD/svg11.dtd">
<svg version="1.1" xmlns="http://www.w3.org/2000/svg" xmlns:xlink="http://www.w3.org/1999/xlink" x="0px" y="0px" viewBox="0 0 1000 1000" enable-background="new 0 0 1000 1000" xml:space="preserve">
<metadata> Svg Vector Icons : http://www.sfont.cn </metadata>
<g><path fill="#fff" d="M500,10c-3.1-0.1-294.9-7.8-304.5,329.3c0,0-45.3,19.2-32.9,127.6c0,0-86.4,78.2-107,197.6c0,0-11,201.7,98.8,24.7c0,0,24.7,67.2,70,127.6c0,0-81,27.5-74.1,98.8c0,0-2.8,79.6,172.9,74.1c0,0,123.5-9.6,160.5-61.7h16.2V10C499.8,10,500,10,500,10z"/><path fill="#fff" d="M944.4,664.5c-20.6-119.4-107-197.6-107-197.6c12.4-108.4-32.9-127.6-32.9-127.6C794.9,2.2,503,9.9,500,10c0,0-0.1,0-0.1,0v918h0.3h16.2c37.1,52.2,160.5,61.7,160.5,61.7c175.6,5.5,172.9-74.1,172.9-74.1c6.8-71.3-74.1-98.8-74.1-98.8c45.3-60.4,70-127.6,70-127.6C955.4,866.2,944.4,664.5,944.4,664.5z"/></g>
</svg>