<?xml version="1.0" encoding="utf-8"?>
<!-- Svg Vector Icons : http://www.sfont.cn -->
<!DOCTYPE svg PUBLIC "-//W3C//DTD SVG 1.1//EN" "http://www.w3.org/Graphics/SVG/1.1/DTD/svg11.dtd">
<svg version="1.1" xmlns="http://www.w3.org/2000/svg" xmlns:xlink="http://www.w3.org/1999/xlink" x="0px" y="0px" viewBox="0 0 1000 1000" enable-background="new 0 0 1000 1000" xml:space="preserve">
<metadata> Svg Vector Icons : http://www.sfont.cn </metadata>
<g><path fill="#fff" d="M106.8,329.2l-55.3,85.4L154,478.3c0,0,68.2,35,35.8,100.3C159,640.6,10,776.2,10,776.2l133.7,83.4c92.2-200.5,86.4-173.7,109.7-245.8c23.8-73.6,28.9-129.7-11.5-170.1C189.8,391.4,184.2,386.6,106.8,329.2L106.8,329.2z"/><path d="M450.5,221.1c21.1-36.8,31.4-60.7,31.4-60.7l-123.4-34.6c0,0-49.8,162.3-138.5,238c0,0,85.8,49.5,84.8,48.1c24.7-24.6,46.7-49.6,66-73.9c19.6-8.6,38.7-16.7,57.2-24.2c-22.8,41.1-59.7,102.6-96.6,141.4l52,45.5c0,0,35.4-34,74.1-75.1h44.1v75.7H329.5v60.6h172.1v145.2c-2.2-0.1-4.3-0.1-6.5-0.2c-19-1-48.6-4.1-60.1-22.3c-14.1-22.2-3.8-63.1-3.1-88.1H313.4l-4.4,2.2c0,0-43.3,194.8,125.5,190.4c158.1,4.3,248.7-44,292.2-77.4l17.3,64.5l97.5-40.4L775.7,574l-79.3,24.6l14.9,55.4c-20.4,15.1-43.9,26.5-69,34.8V561.8h167.8v-60.6H642.3v-75.7h168.5V365H511.4c21.5-26.2,38.5-50.2,43-65.6l-52.1-14.1c223.8-80.1,348.5-66.3,347.3,65v346.3c0,0,13.4,119.1-123,110.4L653.1,791l-17.3,69.9c0,0,318.1,90.9,344.1-153.7c26-244.5-6.5-400.4-6.5-400.4S944.7,81.1,450.5,221.1L450.5,221.1z"/><path d="M179.9,297.3c48.6,0,88-39.1,88-87.4c0-48.2-39.4-87.4-88-87.4c-48.6,0-88,39.2-88,87.4C91.9,258.2,131.3,297.3,179.9,297.3z"/></g>
</svg>