<?xml version="1.0" encoding="utf-8"?>
<!-- Svg Vector Icons : http://www.sfont.cn -->
<!DOCTYPE svg PUBLIC "-//W3C//DTD SVG 1.1//EN" "http://www.w3.org/Graphics/SVG/1.1/DTD/svg11.dtd">
<svg version="1.1" xmlns="http://www.w3.org/2000/svg" xmlns:xlink="http://www.w3.org/1999/xlink" x="0px" y="0px" viewBox="0 0 1000 1000" enable-background="new 0 0 1000 1000" xml:space="preserve">
<metadata> Svg Vector Icons : http://www.sfont.cn </metadata>
<g><path fill="#fff" d="M396.4,528"/><path d="M500,10C229.4,10,10,229.4,10,500c0,270.6,219.4,490,490,490c270.6,0,490-219.4,490-490C990,229.4,770.6,10,500,10z M238.2,244c3.5-6.2,8.9-9.5,16.2-9.5h50h189.1c14.1,0,21,6.8,21,20.7c0,117.5,0.1,234.9,0.1,352.4c0,13.5-6.9,20.3-20.5,20.3h-28c-13.5,0-20.5-6.9-20.5-20.3V373.1v-57.2c0-8.5-3.8-12.4-12.3-12.4H316.6c-8.4,0-14,5.8-14,14.3V604c0,13.7-4.9,23.7-18.6,23.7c-9.3,0-18.3-1.3-27.6-0.7c-13.6,1-18.5-7.9-18.5-18.5c-0.1-0.1,0-292.7-0.1-351C237.9,253.5,236.2,247.6,238.2,244z M514.5,749.8c-0.1,10.9-7.7,18-18.6,17c-48.1-4.1-87.4-24.9-118-62c-0.9-1-1.6-2-2.7-3.2c-3.4,3.9-6.8,7.9-10.2,11.7c-22.9,24.6-50.8,40.6-83.5,48.7c-9.8,2.4-19.6,3.8-29.7,4.5c-7,0.5-15.2-6.3-15.3-13.5c-0.3-13.9-0.8-27.9,0-41.7c0.6-9.8,5.3-15.2,17.2-18.3c38-9.8,61.7-29.3,76.6-66.1c4.6-13.9,9.3-28.1,9.2-41.5c-0.1-81.3,0-163.4,0-244.8c0-8.9,3.6-9.9,12.6-9.9h46.5c10,0,11.6,1.5,11.6,11.3c0,81.6,0.2,163.2-0.1,244.8c-0.1,22.5,6.6,42.6,19.1,60.9c16,23.3,37.9,38.3,65.3,45.4c2.2,0.6,4.4,1.2,6.6,1.9c7.9,2.6,13.2,9.9,13.3,18.2C514.6,725.4,514.6,737.7,514.5,749.8z M805.9,322.2c0,12.3-6.3,18.5-18.5,18.5c-45.7,0-88.3,0.2-133.9,0c-4,0-9.3,5.4-9.2,9.2c0.2,38.4,2.9,72.9,2.7,111.3c0,3.6,2.6,4.1,6.5,4.1c41.5-0.2,83.2,0,124.6,0c13.2,0,18.5,5.3,18.5,18.5c0,89.3-0.2,183.1,0,272.5c0,12-6.2,18.5-18.5,18.5c-70.5-0.3-142,0-212.4,0c-13.3,0-23.1-9.8-23.1-23.1V483.8c0-12.5,8.7-17.9,21.2-17.9c3.5,0,7.2-0.2,10.7,0.1c2.8,0.2,5-2.4,5-5.3c-0.1-19.9,0-40.1,0-60c0.2-17,0.2-33.7,0.2-50.7V248.4c0-14.3,8.6-23.1,23.1-23.1h23.1c12.6,0,21.3,7.7,21.3,20.4c0,7.6,2.1,13.6,1.8,21.2c-0.1,3.4,1.5,4.6,4.6,4.6c45.7-0.1,88.3,0,133.9,0c13.3,0,18.5,9.8,18.5,23.1L805.9,322.2L805.9,322.2z"/><path d="M611.9,548.5v143.1c0,8.6,5.6,13.5,14.2,13.5h87.8c9.4,0,13.2-3.9,13.2-13.4c0.1-24,0.1-48.1,0.1-72.2c0-24.1,0.3-46.9,0.3-71c0-8.7-5.1-13.9-13.9-13.9h-87.8C618,534.6,611.9,540.5,611.9,548.5z"/></g>
</svg>