<?xml version="1.0" encoding="utf-8"?>
<!-- Svg Vector Icons : http://www.sfont.cn -->
<!DOCTYPE svg PUBLIC "-//W3C//DTD SVG 1.1//EN" "http://www.w3.org/Graphics/SVG/1.1/DTD/svg11.dtd">
<svg version="1.1" xmlns="http://www.w3.org/2000/svg" xmlns:xlink="http://www.w3.org/1999/xlink" x="0px" y="0px" viewBox="0 0 1000 1000" enable-background="new 0 0 1000 1000" xml:space="preserve">
<metadata> Svg Vector Icons : http://www.sfont.cn </metadata>
<g><path fill="#fff" d="M954.6,37.8L519.4,74.6c-16.7,1.3-30.1,14.7-30.1,29.4v336.9c0,14.7,13.4,26.7,30.1,26.7l435.2-2.7c19.4,0,35.4-13.4,35.4-29.4V63.9C990,47.8,974,35.8,954.6,37.8z M386.4,85.9L34.1,116C20.7,117.3,10,128.7,10,142.1v304.2c0,13.4,10.7,24.1,24.1,24.1l352.3-2c16,0,28.7-12,28.7-26.7V110C414.4,95.3,401.7,84.6,386.4,85.9z M954.6,535.2l-435.2-2.7c-16.7,0-30.1,12-30.1,26.7v336.9c0,14.7,13.4,28.1,30.1,29.4l435.2,36.8c19.4,1.3,35.4-10,35.4-26.1V564.6C990,548.5,974,535.2,954.6,535.2z M386.4,531.1l-352.3-2c-13.4,0-24.1,10.7-24.1,24.1v304.2c0,13.4,10.7,24.7,24.1,26.1l352.3,30.1c16,1.3,28.7-9.4,28.7-24.1V557.9C414.4,543.2,401.7,531.8,386.4,531.1z"/></g>
</svg>