<?xml version="1.0" encoding="utf-8"?>
<!-- Svg Vector Icons : http://www.sfont.cn -->
<!DOCTYPE svg PUBLIC "-//W3C//DTD SVG 1.1//EN" "http://www.w3.org/Graphics/SVG/1.1/DTD/svg11.dtd">
<svg version="1.1" xmlns="http://www.w3.org/2000/svg" xmlns:xlink="http://www.w3.org/1999/xlink" x="0px" y="0px" viewBox="0 0 1000 1000" enable-background="new 0 0 1000 1000" xml:space="preserve">
<metadata> Svg Vector Icons : http://www.sfont.cn </metadata>
<g><path fill="#fff" d="M788.1,838.5c-3.1,0-6.5,0-9.9-0.2l-4.6,0.2H215.4v-2.7C99,819.1,10,719.1,10,601.5c0-130.7,105.2-237,234.5-237c2.7,0,5.5,0.1,8.3,0.2C283.4,246.1,391.3,161.5,515,161.5c149.2,0,270.7,121.3,270.8,270.6C898.5,432.2,990,523.3,990,635.3C990,747.3,899.4,838.5,788.1,838.5z M773.6,820.4l3.4-16.7c2.1,0.3,7.3,0.4,11,0.4c92.4,0,167.5-75.7,167.5-168.8c0-93.1-76.3-168.8-170-168.8c-5.5,0-10.8,0.3-16.1,0.8l-20.2,2l1.6-22.9c0.3-4.6,0.7-9.3,0.7-14c0-130.4-106.1-236.5-236.4-236.5c-112.5,0-210,80-231.8,190.2l-3,15.3l-15.5-1.5c-6.6-0.6-13.3-1-20.1-1c-110.3,0-200.1,90.9-200.1,202.6c0,105,83.2,193.7,189.5,201.8l10.8,0.8h529V820.4z"/></g>
</svg>