<?xml version="1.0" encoding="utf-8"?>
<!-- Svg Vector Icons : http://www.sfont.cn -->
<!DOCTYPE svg PUBLIC "-//W3C//DTD SVG 1.1//EN" "http://www.w3.org/Graphics/SVG/1.1/DTD/svg11.dtd">
<svg version="1.1" xmlns="http://www.w3.org/2000/svg" xmlns:xlink="http://www.w3.org/1999/xlink" x="0px" y="0px" viewBox="0 0 1000 1000" enable-background="new 0 0 1000 1000" xml:space="preserve">
<metadata> Svg Vector Icons : http://www.sfont.cn </metadata>
<g><path fill="#fff" d="M325.8,556.4h210.9c0-49.6-23.4-78.6-23.4-78.6h-183c4.3-89.8,8.2-205.1,9.6-247.9H514c0,0-0.9-73.7-20.3-73.7c-19.4,0-306,0-306,0s18.4-96.3,43-138.9c0,0-91.4-4.9-122.5,116.9C77,256.1,30.3,329.8,25.3,343.2s26.9,6.4,40.4,0c13.5-6.4,74.4-28.3,92.1-113.3h94.6c1.3,53.9,5,218.9,3.8,247.9H61.4c-27.6,19.8-36.8,78.6-36.8,78.6h222.6c-9.3,61.5-25.6,140.7-48.4,182.7c-36.1,66.6-55.2,127.5-185.6,232.3c0,0-21.2,15.6,44.6,9.9c65.9-5.7,128.2-22.7,171.4-109.1c22.5-44.9,45.7-101.9,63.8-159.7l-0.1,0.2L476.5,924c0,0,24.1-56.7,6.4-119l-136-152.3l-46,34.1l0,0.2c12.8-44.8,22-89.2,24.8-127.7C325.7,558.3,325.8,557.4,325.8,556.4z"/><path fill="#fff" d="M580.6,140.7v731h76.8l31.5,88l133.2-88H990v-731H580.6z M910.9,793h-87.3l-108.8,71.9L689.1,793h-27.2V222.2h249L910.9,793L910.9,793z"/></g>
</svg>